<svg xmlns="http://www.w3.org/2000/svg" viewBox="0 0 280 56" fill="none">
  <defs>
    <linearGradient id="dG" x1="0" y1="0" x2="48" y2="48" gradientUnits="userSpaceOnUse">
      <stop offset="0%" stop-color="#0E4A7C"/>
      <stop offset="100%" stop-color="#0B3B66"/>
    </linearGradient>
    <linearGradient id="aG" x1="22" y1="12" x2="28" y2="20" gradientUnits="userSpaceOnUse">
      <stop offset="0%" stop-color="#F97316"/>
      <stop offset="100%" stop-color="#FB923C"/>
    </linearGradient>
    <linearGradient id="xG" x1="18" y1="18" x2="30" y2="34" gradientUnits="userSpaceOnUse">
      <stop offset="0%" stop-color="#14C8AD"/>
      <stop offset="100%" stop-color="#0FAF9A"/>
    </linearGradient>
    <linearGradient id="textGrad" x1="60" y1="10" x2="260" y2="40" gradientUnits="userSpaceOnUse">
      <stop offset="0%" stop-color="#0B3B66"/>
      <stop offset="100%" stop-color="#0E4A7C"/>
    </linearGradient>
  </defs>
  <!-- Icon -->
  <g transform="translate(4, 4)">
    <path d="M8 8h14c8.837 0 16 7.163 16 16s-7.163 16-16 16H8V8z" fill="url(#dG)"/>
    <path d="M18 34L25 17" stroke="url(#xG)" stroke-width="3.5" stroke-linecap="round"/>
    <path d="M32 34L25 17" stroke="url(#xG)" stroke-width="3.5" stroke-linecap="round"/>
    <path d="M25 11L25 17" stroke="url(#aG)" stroke-width="3" stroke-linecap="round"/>
    <path d="M21 15L25 11L29 15" stroke="url(#aG)" stroke-width="2.5" stroke-linecap="round" stroke-linejoin="round"/>
    <circle cx="25" cy="11" r="2" fill="#F97316" opacity="0.6"/>
  </g>
  <!-- Brand Name -->
  <text x="62" y="27" font-family="Inter, system-ui, -apple-system, sans-serif" font-size="26" font-weight="800" fill="url(#textGrad)" letter-spacing="2.5">DEALIX</text>
  <!-- Tagline -->
  <text x="62" y="44" font-family="IBM Plex Sans Arabic, Tajawal, sans-serif" font-size="11" fill="#64748B" letter-spacing="0.3">نظام الإيرادات الذكي</text>
  <!-- Accent dot -->
  <circle cx="152" y="27" r="3" fill="#0FAF9A" opacity="0.8"/>
</svg>
