<svg xmlns="http://www.w3.org/2000/svg" viewBox="0 0 200 200" fill="none">
  <defs>
    <linearGradient id="sealGrad" x1="0" y1="0" x2="200" y2="200" gradientUnits="userSpaceOnUse">
      <stop offset="0%" stop-color="#0E4A7C"/>
      <stop offset="100%" stop-color="#0B3B66"/>
    </linearGradient>
  </defs>
  <!-- Outer rings -->
  <circle cx="100" cy="100" r="96" stroke="#0B3B66" stroke-width="2.5" fill="none"/>
  <circle cx="100" cy="100" r="90" stroke="#0B3B66" stroke-width="1" fill="none" stroke-dasharray="4 3"/>
  <circle cx="100" cy="100" r="84" stroke="#0B3B66" stroke-width="1.5" fill="none"/>
  <!-- Inner background -->
  <circle cx="100" cy="100" r="60" fill="url(#sealGrad)" opacity="0.06"/>
  <!-- Logo in center -->
  <g transform="translate(72, 68)">
    <path d="M0 0h20c12 0 22 10 22 22s-10 22-22 22H0V0z" fill="#0B3B66" opacity="0.15"/>
    <path d="M10 38L18 14" stroke="#0FAF9A" stroke-width="3.5" stroke-linecap="round"/>
    <path d="M26 38L18 14" stroke="#0FAF9A" stroke-width="3.5" stroke-linecap="round"/>
    <path d="M18 7L18 14" stroke="#F97316" stroke-width="3" stroke-linecap="round"/>
    <path d="M13 11L18 7L23 11" stroke="#F97316" stroke-width="2.5" stroke-linecap="round" stroke-linejoin="round"/>
  </g>
  <!-- Top arc text -->
  <path id="topArc" d="M28 100 A72 72 0 0 1 172 100" fill="none"/>
  <text font-family="Inter, system-ui, sans-serif" font-size="12" font-weight="700" fill="#0B3B66" letter-spacing="5">
    <textPath href="#topArc" startOffset="50%" text-anchor="middle">DEALIX</textPath>
  </text>
  <!-- Bottom arc text -->
  <path id="bottomArc" d="M172 115 A72 72 0 0 1 28 115" fill="none"/>
  <text font-family="Inter, system-ui, sans-serif" font-size="8" font-weight="600" fill="#64748B" letter-spacing="3">
    <textPath href="#bottomArc" startOffset="50%" text-anchor="middle">AI REVENUE OS</textPath>
  </text>
  <!-- Gold accent dots -->
  <circle cx="28" cy="107" r="3" fill="#C89B3C"/>
  <circle cx="172" cy="107" r="3" fill="#C89B3C"/>
  <!-- Saudi text -->
  <text x="100" y="138" font-family="IBM Plex Sans Arabic, Tajawal, sans-serif" font-size="8" fill="#94A3B8" text-anchor="middle">المملكة العربية السعودية</text>
  <!-- Stars -->
  <circle cx="85" cy="148" r="1.5" fill="#C89B3C"/>
  <circle cx="100" cy="150" r="2" fill="#C89B3C"/>
  <circle cx="115" cy="148" r="1.5" fill="#C89B3C"/>
</svg>
