<svg xmlns="http://www.w3.org/2000/svg" viewBox="0 0 200 200" fill="none">
  <!-- Outer circle -->
  <circle cx="100" cy="100" r="95" stroke="#0B3B66" stroke-width="2" fill="none"/>
  <circle cx="100" cy="100" r="88" stroke="#0B3B66" stroke-width="1" fill="none"/>
  <!-- Inner logo -->
  <path d="M72 70h20c12 0 22 10 22 22s-10 22-22 22H72V70z" fill="#0B3B66" opacity="0.15"/>
  <path d="M86 104L92 84" stroke="#0B3B66" stroke-width="3" stroke-linecap="round"/>
  <path d="M98 104L92 84" stroke="#0B3B66" stroke-width="3" stroke-linecap="round"/>
  <path d="M92 78L92 84M92 78L88 82M92 78L96 82" stroke="#F97316" stroke-width="2.5" stroke-linecap="round" stroke-linejoin="round"/>
  <!-- Top text arc -->
  <path id="topArc" d="M30 100 A70 70 0 0 1 170 100" fill="none"/>
  <text font-family="Inter, sans-serif" font-size="11" font-weight="600" fill="#0B3B66" letter-spacing="4">
    <textPath href="#topArc" startOffset="50%" text-anchor="middle">DEALIX</textPath>
  </text>
  <!-- Bottom text arc -->
  <path id="bottomArc" d="M170 115 A70 70 0 0 1 30 115" fill="none"/>
  <text font-family="Inter, sans-serif" font-size="8" fill="#0B3B66" letter-spacing="2">
    <textPath href="#bottomArc" startOffset="50%" text-anchor="middle">REVENUE SYSTEMS</textPath>
  </text>
  <!-- Dots separating text -->
  <circle cx="30" cy="107" r="2.5" fill="#C89B3C"/>
  <circle cx="170" cy="107" r="2.5" fill="#C89B3C"/>
  <!-- Saudi text -->
  <text x="100" y="130" font-family="IBM Plex Sans Arabic, sans-serif" font-size="8" fill="#64748B" text-anchor="middle">المملكة العربية السعودية</text>
</svg>
